# xmcd
#
# Track frame offsets:
#	150
#	20605
#	49327
#	51562
#	73865
#	95252
#	123357
#	139507
#	141002
#	165642
#	199280
#
# Disc length: 3014 seconds
#
# Revision: 0
# Processed by: cddbd v1.4PL0 Copyright (c) Steve Scherf et al.
# Submitted via: audiograbber 1.81.03
#
DISCID=a40bc40b
DTITLE=Lightnin`Hopkins - It's a Sin to be Rich
DYEAR=1992
DGENRE=
TTITLE0=Roberta
TTITLE1=Katie Mae
TTITLE2=Howlin Wolf
TTITLE3=The`Rehearsal
TTITLE4=It's a Sin to Be Rich It's a Low Down Shame to Be Poor
TTITLE5=Y'All escuse me
TTITLE6=Just out of Louisiana
TTITLE7=Get out your pencil
TTITLE8=I Forgot to Pull My Shoes
TTITLE9=Turn Me On
TTITLE10=Candy Kitchen
EXTD=
EXTT0=
EXTT1=
EXTT2=
EXTT3=
EXTT4=
EXTT5=
EXTT6=
EXTT7=
EXTT8=
EXTT9=
EXTT10=
PLAYORDER=
